# xmcd CD database file
#
# Track frame offsets:
#	150
#	14228
#	31518
#	52024
#	66348
#	79760
#	96479
#	108523
#	122997
#	142848
#	156078
#	167704
#	183686
#	200256
#	215298
#	228605
#	239949
#	251101
#
# Disc length: 3472 seconds
#
# Revision: 2
# Processed by: cddbd v1.4b41PL1 Copyright (c) Steve Scherf et al.
# Submitted via: Feurio! 1.50.2ß - http://www.feurio.com
#
DISCID=0e0d8e12
DTITLE=Cosy Slow - New Varied Country
DYEAR=1900
DGENRE=
TTITLE0=Highway 40 Blues
TTITLE1=Sow In Love
TTITLE2=Song For The Life
TTITLE3=Thank God For The Radio
TTITLE4=Saqinaw Michigan
TTITLE5=Since I Started Drinkin' Again
TTITLE6=The Distance Between You And Me
TTITLE7=Send A Message To My Heart
TTITLE8=Sylvia's Mother
TTITLE9=Songs That Make A Difference
TTITLE10=Two Stories Wide
TTITLE11=Mercury Blues
TTITLE12=Cajun Moon
TTITLE13=The Whirl And Suck
TTITLE14=I'm Beginning To Forget You
TTITLE15=Still In Love With You
TTITLE16=Sweet Jenny Lee
TTITLE17=Waterloo
EXTD=
EXTT0=
EXTT1=
EXTT2=
EXTT3=
EXTT4=
EXTT5=
EXTT6=
EXTT7=
EXTT8=
EXTT9=
EXTT10=
EXTT11=
EXTT12=
EXTT13=
EXTT14=
EXTT15=
EXTT16=
EXTT17=
PLAYORDER=
